# xmcd
#
# Track frame offsets:
# 212
# 10862
# 23900
# 40390
# 58037
# 69510
# 88215
# 103995
# 119450
# 130785
# 144412
# 162797
# 173717
# 189175
# 201282
# 216962
#
# Disc length: 3192 seconds
#
#
# Revision: 0
# Processed by: cddbd v1.5.1PL0 Copyright (c) Steve Scherf et al.
# Submitted via: FreeRIP 2.70 
#
DISCID=e40c7610
DTITLE=Intrumental Memories Of Elvis Presley - Intrumental Memories Of Elvis Presley
DYEAR=1996
DGENRE=Blues
TTITLE0=Hound Dog
TTITLE1=Heartbreak Hotel
TTITLE2=The Girl Of My Best Friend
TTITLE3=It's Now Or Never
TTITLE4=Love Me Tender
TTITLE5=Return To Sender
TTITLE6=Suspicious Minds
TTITLE7=Are You Lonesome Tonight
TTITLE8=Jailhouse Rock
TTITLE9=Always On My Mind
TTITLE10=Can't Help Falling In Love
TTITLE11=Don't Be Cruel
TTITLE12=Crying In The Chapel
TTITLE13=All Shook Up
TTITLE14=The Wonder Of You
TTITLE15=An American Trilogy
EXTD=
EXTT0=
EXTT1=
EXTT2=
EXTT3=
EXTT4=
EXTT5=
EXTT6=
EXTT7=
EXTT8=
EXTT9=
EXTT10=
EXTT11=
EXTT12=
EXTT13=
EXTT14=
EXTT15=
PLAYORDER=
